<svg width="314" height="392" viewBox="0 0 314 392" fill="none" xmlns="http://www.w3.org/2000/svg">
<path d="M157.27 78.3162C115.824 78.3162 76.0765 94.7925 46.7703 124.121C17.4641 153.449 1 193.226 1 234.703C1 276.179 17.4641 315.956 46.7703 345.285C76.0765 374.613 115.824 391.089 157.27 391.089C198.715 391.089 238.463 374.613 267.769 345.285C297.075 315.956 313.539 276.179 313.539 234.703C313.516 211.428 308.302 188.451 298.277 167.45C288.252 146.448 273.67 127.95 255.593 113.306C253.971 115.005 252.309 116.717 250.568 118.455C242.79 126.295 236.768 133.057 232.504 138.741C228.436 144.425 223.891 151.089 221.844 158.732C221.844 158.732 221.457 159.796 220.99 161.141L218.683 169.763C218.67 169.911 218.652 170.064 218.648 170.197H218.566L186.3 290.708C182.327 305.547 175.604 316.982 166.127 325.012C156.697 332.868 145.004 336.795 131.048 336.795C117.092 336.795 107.503 332.868 102.279 325.012C97.1028 316.982 96.4999 305.547 100.473 290.708L137.844 151.133H166.627L128.765 292.54C125.587 304.411 128.97 310.347 138.913 310.347C148.857 310.347 155.417 304.411 158.596 292.54L192.862 164.563C193.129 162.407 193.596 160.074 194.27 157.556C196.894 147.756 200.443 139.623 204.917 133.156C209.639 126.492 215.817 119.143 223.452 111.107C227.448 106.795 231.055 102.684 234.305 98.7581C210.823 85.3956 184.282 78.3526 157.27 78.3162Z" fill="black" fill-opacity="0.19" stroke="black" stroke-opacity="0.6" stroke-width="0.264583"/>
<path d="M246.771 0C231.104 0 218.048 4.50642 207.605 13.5218C197.214 22.3413 189.79 35.0808 185.329 51.7397L179.897 72.0253H210.448L216.431 49.6825C218.32 42.6269 221.055 37.5315 224.637 34.3957C228.27 31.0639 232.73 29.3969 238.018 29.3969C243.306 29.3969 246.875 31.0639 248.724 34.3957C250.625 37.5315 250.632 42.6269 248.743 49.6825C245.595 61.4417 241.456 71.0454 236.329 78.493C231.201 85.9405 224.369 94.2699 215.832 103.481C208.197 111.517 202.019 118.866 197.297 125.53C192.823 131.997 189.274 140.131 186.65 149.93C185.976 152.448 185.509 154.782 185.242 156.938L150.976 284.914C147.798 296.785 141.237 302.721 131.293 302.721C121.35 302.721 117.967 296.785 121.145 284.914L159.007 143.507H130.224L92.853 283.082C88.8799 297.921 89.4829 309.356 94.6594 317.386C99.8828 325.242 109.472 329.169 123.428 329.169C137.384 329.169 149.077 325.242 158.507 317.386C167.984 309.356 174.707 297.921 178.68 283.082L210.946 162.571H211.028C211.033 162.438 211.05 162.285 211.063 162.137L213.37 153.516C213.837 152.17 214.224 151.107 214.224 151.107C216.271 143.463 220.816 136.799 224.884 131.115C229.148 125.432 235.17 118.669 242.948 110.83C252.57 101.226 260.368 92.2115 266.346 83.784C272.323 75.3566 277.043 64.6749 280.507 51.7397C284.967 35.0808 284.363 22.3413 278.695 13.5218C273.079 4.50642 262.438 0 246.771 0Z" fill="white"/>
</svg>
